<svg  className="left-arrow" width="512" height="248" viewBox="0 0 512 248" fill="none" xmlns="http://www.w3.org/2000/svg">
<g id="Group">
<g id="Group_2">
<path id="Vector" d="M492 104H68.442L138.673 29C146.502 21.208 146.465 13.721 138.673 5.89199C130.881 -1.93801 118.217 -1.967 110.388 5.824L5.884 109.824C5.877 109.83 5.872 109.837 5.866 109.843C-1.943 117.635 -1.968 130.339 5.864 138.157C5.871 138.163 5.876 138.17 5.882 138.176L110.386 242.176C118.214 249.966 130.878 249.939 138.671 242.108C146.463 234.279 146.433 221.616 138.604 213.824L68.442 144H492C503.046 144 512 135.046 512 124C512 112.954 503.046 104 492 104Z" fill="black"/>
</g>
</g>
</svg>
